<svg xmlns="http://www.w3.org/2000/svg" width="1920" height="1259" viewBox="0 0 1920 1259">
  <defs>
    <style>
      .cls-1 {
        fill-rule: evenodd;
      }
    </style>
  </defs>
  <path id="Color_Fill_1" data-name="Color Fill 1" class="cls-1" d="M1918,1q-0.495,163.983-1,328V448c-5.64,37.755,4.5,78.315-1,113q0.495,27,1,54v89c-5.16,34.562,4.79,73.587-2,103-7.83-3.506-55.02-12.877-69-7q-3.495,4-7,8h-70q-7.005,7-14,14-5.505-13-11-26c5.96-5.123,8.27-13.609,12-21,27.66-54.838-20.98-104.275-66-112-28.21-4.84-58.28,22.1-74,17-2.33-1.667-4.67-3.333-7-5,7.98-4.224,5.9-34.43,9-43-9.03-3.509-11.94-13.064-23-16l-110-9h-51l-94-1-154,2c-32.63,2.763-136.85-1.828-148,16-6.58,9.115-1.19,37.223-1,49,0.78,48.415,5.7,92.68,16,130-45.07.11-85-3-133-3H872c-45.575,7.225-109.965,4.881-154-2l-204,3c-38.457-4.221-77.879-1-121-1H350c-37.329-5.821-93.871-5.741-129,0H163c-38.225,6.209-102.328,0-148,0-0.883-4.564-8.819-7.056-14-10V406c4.9-32.837,7.934-101.007,3-134L2,176,1,1H230l90,2,86-1,91,2L656,2C1077.24,2,1499.17,1.09,1918,1ZM1680,692c38.91-.823,58.44,26.216,55,65q4.995,4,10,8l-13,2c-15.43,35.688-52.9,48.932-91,62-10.04,3.443-29.57,12.26-43,7-5.34-2.488-7.47-6.793-10-12,2.26-8.818,12.72-51.024,17-58,8.48-13.821,19.04-21.08,25-40l10-1-3-4c-0.67-.333-1.33-0.667-2-1C1646.32,692.635,1657.05,704.349,1680,692ZM10,800h4v1Z"/>
</svg>
